# xmcd
#
# Track frame offsets: 
#        150
#        11501
#        25033
#        35281
#        50089
#        61848
#        72200
#        84738
#        94013
#        106267
#        117312
#        128144
#
# Disc length: 1898 seconds
#
# Revision: 0
# Processed by: cddbd v1.5.2PL0 Copyright (c) Steve Scherf et al.
# Submitted via: ExactAudioCopy v1.1
#
DISCID=9507680c
DTITLE=Chet Atkins - Travelin'
DYEAR=2013
DGENRE=Country
TTITLE0=Wheels
TTITLE1=Calcutta
TTITLE2=La Dolce Vita
TTITLE3=Exodus
TTITLE4=Baubles, Bangles And Beads
TTITLE5=Naboomspruit Polka
TTITLE6=Muskrat Ramble
TTITLE7=Waram Patat
TTITLE8=Volare
TTITLE9=Mossie Se Moses
TTITLE10=Sweetness
TTITLE11=The World Is Waiting For The Sunrise
EXTD=
EXTT0=
EXTT1=
EXTT2=
EXTT3=
EXTT4=
EXTT5=
EXTT6=
EXTT7=
EXTT8=
EXTT9=
EXTT10=
EXTT11=
PLAYORDER=
